# xmcd CD database file
#
# Track frame offsets:
#	150
#	39860
#	63557
#	82827
#	95960
#	126110
#	164280
#	184680
#	207780
#	232160
#	247607
#	297037
#	318560
#	340840
#
# Disc length: 4715 seconds
#
# Revision: 0
# Processed by: cddbd v1.5.1PL2 Copyright (c) Steve Scherf et al.
# Submitted via: CDex 1.51
#
DISCID=bd12690e
DTITLE=Various Artist - City Nights
DYEAR=1900
DGENRE=Jazz
TTITLE0=Mel Powell - What's New
TTITLE1=Ruby Braff and Ellis Larkins - Skylark
TTITLE2=Ruby Braff and Ellis Larkins - I Didn't Know What Time It Was
TTITLE3=Mel Powell - Gone With The Wind
TTITLE4=The Basie Bunch - Embraceable You
TTITLE5=Ruby Braff - I Cover The Waterfront
TTITLE6=Ruby Braff and Ellis Larkins - What Is There To Say
TTITLE7=Ruby Braff and Ellis Larkins - When A Woman Loves A Man
TTITLE8=Mel Powell - You're My Thrill
TTITLE9=Ruby Braff and Ellis Larkins - My Romance
TTITLE10=Ruby Braff - I Can't Get Started
TTITLE11=Ray Bryant and The Jo Jones Trio - Spider Kelly's Blues
TTITLE12=Ruby Braff and Ellis Larkins - Little Girl Blue
TTITLE13=Ruby Braff and Ellis Larkins - A City Called Heaven
EXTD=
EXTT0=
EXTT1=
EXTT2=
EXTT3=
EXTT4=
EXTT5=
EXTT6=
EXTT7=
EXTT8=
EXTT9=
EXTT10=
EXTT11=
EXTT12=
EXTT13=
PLAYORDER=
